<svg width="40" height="40" viewBox="0 0 40 40" fill="none" xmlns="http://www.w3.org/2000/svg">
<g clip-path="url(#clip0_27_799)">
<path d="M30.625 0H9.375C4.19733 0 0 4.19733 0 9.375V30.625C0 35.8027 4.19733 40 9.375 40H30.625C35.8027 40 40 35.8027 40 30.625V9.375C40 4.19733 35.8027 0 30.625 0Z" fill="#0277BD"/>
<path d="M8.39891 16.0392L8.84609 21.0302H20.015V16.0392H8.39891ZM20.0148 5.9375H7.5L7.95375 10.9284H20.0148V5.9375ZM20.0148 34.1939V29.0013L19.993 29.007L14.4345 27.5062L14.0792 23.5256H9.06906L9.76828 31.3622L19.9919 34.2003L20.0148 34.1939Z" fill="#EBEBEB"/>
<path d="M26.1434 21.0302L25.5641 27.503L19.9977 29.0055V34.1978L30.2294 31.3622L30.3044 30.5189L31.4772 17.3795L31.5989 16.0392L32.5 5.9375H19.9977V10.9284H27.0303L26.5762 16.0392H19.9977V21.0302H26.1434Z" fill="white"/>
</g>
<defs>
<clipPath id="clip0_27_799">
<rect width="40" height="40" fill="white"/>
</clipPath>
</defs>
</svg>
