<svg width="21" height="21" viewBox="0 0 21 21" fill="none" xmlns="http://www.w3.org/2000/svg">
<g clip-path="url(#clip0_89_18)">
<path fill-rule="evenodd" clip-rule="evenodd" d="M2.16 0.660001C2.58155 0.237924 3.15346 0.000526352 3.75 1.19624e-06H12.75C12.8486 -0.000174824 12.9462 0.0190762 13.0373 0.0566538C13.1284 0.0942313 13.2112 0.149398 13.281 0.219001L19.281 6.219C19.3506 6.28878 19.4058 6.37159 19.4433 6.46271C19.4809 6.55382 19.5002 6.65144 19.5 6.75V18.75C19.5 19.3467 19.2629 19.919 18.841 20.341C18.419 20.7629 17.8467 21 17.25 21H3.75C3.15326 21 2.58097 20.7629 2.15901 20.341C1.73705 19.919 1.5 19.3467 1.5 18.75V2.25C1.5 1.653 1.737 1.08 2.16 0.660001ZM7.4325 5.925C7.63421 5.925 7.83395 5.88527 8.0203 5.80808C8.20666 5.73089 8.37598 5.61775 8.51862 5.47512C8.66125 5.33249 8.77439 5.16316 8.85158 4.9768C8.92877 4.79045 8.9685 4.59071 8.9685 4.389C8.9685 4.18729 8.92877 3.98756 8.85158 3.8012C8.77439 3.61484 8.66125 3.44552 8.51862 3.30289C8.37598 3.16025 8.20666 3.04711 8.0203 2.96992C7.83395 2.89273 7.63421 2.853 7.4325 2.853C7.02513 2.853 6.63444 3.01483 6.34638 3.30289C6.05833 3.59094 5.8965 3.98163 5.8965 4.389C5.8965 4.79637 6.05833 5.18706 6.34638 5.47512C6.63444 5.76317 7.02513 5.925 7.4325 5.925ZM4.314 12.75C4.314 12.2325 4.7325 11.8125 5.25 11.8125H15.75C15.9895 11.8257 16.2149 11.93 16.3799 12.104C16.5449 12.2781 16.6371 12.5087 16.6375 12.7486C16.6379 12.9884 16.5464 13.2194 16.382 13.3939C16.2175 13.5685 15.9925 13.6736 15.753 13.6875H5.253C5.00422 13.6875 4.76561 13.5888 4.58956 13.413C4.4135 13.2372 4.3144 12.9988 4.314 12.75ZM4.314 17.25C4.314 16.7325 4.7325 16.3125 5.25 16.3125H11.25C11.4895 16.3257 11.7149 16.43 11.8799 16.604C12.0449 16.7781 12.1371 17.0087 12.1375 17.2486C12.1379 17.4884 12.0464 17.7194 11.882 17.8939C11.7175 18.0685 11.4925 18.1736 11.253 18.1875H5.253C5.00422 18.1875 4.76561 18.0888 4.58956 17.913C4.4135 17.7372 4.3144 17.4988 4.314 17.25ZM7.434 6.951C6.384 6.951 5.4255 7.3455 4.701 7.995C4.2705 8.3805 4.6065 9 5.184 9H9.681C10.26 9 10.596 8.3805 10.1655 7.995C9.41488 7.32111 8.44273 6.94918 7.434 6.951Z" fill="white"/>
</g>
<defs>
<clipPath id="clip0_89_18">
<rect width="21" height="21" fill="white"/>
</clipPath>
</defs>
</svg>
