<svg width="40" height="40" viewBox="0 0 40 40" fill="none" xmlns="http://www.w3.org/2000/svg">
<g clip-path="url(#clip0_27_792)">
<path d="M30.625 0H9.375C4.19733 0 0 4.19733 0 9.375V30.625C0 35.8027 4.19733 40 9.375 40H30.625C35.8027 40 40 35.8027 40 30.625V9.375C40 4.19733 35.8027 0 30.625 0Z" fill="#E14E1D"/>
<path d="M7.5 5.9375L8.84531 21.0302H26.1438L25.5633 27.5036L19.9936 29.0095L14.4344 27.5058L14.0627 23.3492H9.05312L9.76953 31.3619L19.9925 34.2013L30.2284 31.3619L31.6008 16.0398H13.41L12.9533 10.9289H32.053L32.5 5.9375H7.5Z" fill="white"/>
<path d="M20 5.9375H7.5L8.84531 21.0302H20V16.0398H13.41L12.9533 10.9289H20V5.9375ZM20 29.0073L19.9936 29.0095L14.4344 27.5058L14.0627 23.3492H9.05312L9.76953 31.3619L19.9925 34.2013L20.0002 34.1991L20 29.0073Z" fill="#EBEBEB"/>
</g>
<defs>
<clipPath id="clip0_27_792">
<rect width="40" height="40" fill="white"/>
</clipPath>
</defs>
</svg>
