<svg width="30" height="30" viewBox="0 0 30 30" fill="none" xmlns="http://www.w3.org/2000/svg">
<path d="M0 0V30H30V0H0ZM15 15H17.5V25C17.498 25.6624 17.234 26.2972 16.7656 26.7656C16.2972 27.234 15.6624 27.498 15 27.5H12.5C11.8376 27.498 11.2028 27.234 10.7344 26.7656C10.266 26.2972 10.002 25.6624 10 25V22.5H12.5V25H15V15ZM22.5 15H27.5V17.5H22.5V20H25C25.6624 20.002 26.2972 20.266 26.7656 20.7344C27.234 21.2028 27.498 21.8376 27.5 22.5V25C27.498 25.6624 27.234 26.2972 26.7656 26.7656C26.2972 27.234 25.6624 27.498 25 27.5H20V25H25V22.5H22.5C21.8376 22.498 21.2028 22.234 20.7344 21.7656C20.266 21.2972 20.002 20.6624 20 20V17.5C20.002 16.8376 20.266 16.2028 20.7344 15.7344C21.2028 15.266 21.8376 15.002 22.5 15Z" fill="#FFCA28"/>
</svg>
