<svg width="40" height="22" viewBox="0 0 40 22" fill="none" xmlns="http://www.w3.org/2000/svg">
<path d="M35.7912 0C34.8577 0.0007436 33.9508 0.311238 33.2127 0.882808C32.4747 1.45438 31.9471 2.25471 31.7128 3.15833H26.8845C25.888 3.15814 24.9237 3.51143 24.1632 4.15536C23.4027 4.79929 22.8953 5.6921 22.7312 6.675L22.5595 7.715C22.4784 8.20688 22.2249 8.65387 21.8445 8.97601C21.464 9.29815 20.9813 9.47444 20.4828 9.47333H18.8145C18.5808 8.56965 18.0535 7.76922 17.3154 7.19777C16.5774 6.62632 15.6704 6.31624 14.737 6.31624C13.8036 6.31624 12.8966 6.62632 12.1586 7.19777C11.4205 7.76922 10.8932 8.56965 10.6595 9.47333H8.28949C8.03312 8.48085 7.4236 7.61594 6.57517 7.0407C5.72674 6.46546 4.69764 6.21938 3.68077 6.3486C2.66389 6.47781 1.72904 6.97344 1.05144 7.74259C0.373835 8.51174 0 9.50161 0 10.5267C0 11.5517 0.373835 12.5416 1.05144 13.3107C1.72904 14.0799 2.66389 14.5755 3.68077 14.7047C4.69764 14.834 5.72674 14.5879 6.57517 14.0126C7.4236 13.4374 8.03312 12.5725 8.28949 11.58H10.6595C10.8926 12.4844 11.4198 13.2857 12.1581 13.8578C12.8963 14.4299 13.8038 14.7403 14.7378 14.7403C15.6718 14.7403 16.5793 14.4299 17.3176 13.8578C18.0558 13.2857 18.583 12.4844 18.8162 11.58H20.4828C20.9816 11.5785 21.4647 11.7546 21.8455 12.0768C22.2263 12.399 22.48 12.8462 22.5612 13.3383L22.7328 14.3767C22.8966 15.3599 23.4039 16.2531 24.1644 16.8973C24.9249 17.5416 25.8894 17.8951 26.8862 17.895H27.5028C27.759 18.8876 28.3684 19.7527 29.2168 20.3281C30.0652 20.9035 31.0944 21.1497 32.1113 21.0206C33.1283 20.8915 34.0633 20.3959 34.7409 19.6267C35.4186 18.8576 35.7925 17.8676 35.7925 16.8425C35.7925 15.8174 35.4186 14.8274 34.7409 14.0583C34.0633 13.2891 33.1283 12.7935 32.1113 12.6644C31.0944 12.5353 30.0652 12.7815 29.2168 13.3569C28.3684 13.9323 27.759 14.7974 27.5028 15.79H26.8862C26.3874 15.791 25.9045 15.6145 25.524 15.292C25.1435 14.9696 24.8902 14.5222 24.8095 14.03L24.6378 12.9917C24.4789 12.0367 23.9949 11.1659 23.2678 10.5267C23.994 9.88652 24.4768 9.01516 24.6345 8.06L24.8078 7.02333C24.8886 6.53115 25.1419 6.08377 25.5224 5.76129C25.9029 5.43881 26.3857 5.26229 26.8845 5.26333H31.7112C31.9079 6.02615 32.3146 6.71851 32.8851 7.26175C33.4556 7.805 34.167 8.17734 34.9385 8.33649C35.7101 8.49564 36.5108 8.43521 37.2497 8.16207C37.9886 7.88893 38.6361 7.41403 39.1186 6.79132C39.6011 6.16861 39.8993 5.42305 39.9793 4.63935C40.0593 3.85564 39.9179 3.06521 39.5711 2.35786C39.2244 1.6505 38.6862 1.05457 38.0177 0.637771C37.3492 0.220973 36.5773 1.53517e-05 35.7895 0M35.7895 2.105C36.3478 2.105 36.8832 2.32678 37.2779 2.72154C37.6727 3.1163 37.8945 3.65172 37.8945 4.21C37.8947 4.48657 37.8404 4.76048 37.7347 5.01606C37.629 5.27164 37.474 5.50389 37.2785 5.69954C37.083 5.89518 36.8509 6.05038 36.5954 6.15627C36.3399 6.26216 36.0661 6.31667 35.7895 6.31667C35.5129 6.31667 35.2391 6.26216 34.9836 6.15627C34.7281 6.05038 34.4959 5.89518 34.3004 5.69954C34.1049 5.50389 33.9499 5.27164 33.8442 5.01606C33.7386 4.76048 33.6843 4.48657 33.6845 4.21C33.6845 3.93343 33.739 3.65957 33.8449 3.40407C33.9508 3.14857 34.106 2.91644 34.3016 2.72095C34.4973 2.52546 34.7295 2.37044 34.9851 2.26475C35.2407 2.15907 35.5146 2.10478 35.7912 2.105M4.21115 8.42167C4.48773 8.42145 4.76163 8.47573 5.01721 8.58142C5.2728 8.68711 5.50505 8.84213 5.70069 9.03762C5.89634 9.23311 6.05154 9.46523 6.15743 9.72073C6.26332 9.97623 6.31782 10.2501 6.31782 10.5267C6.31782 10.8032 6.26332 11.0771 6.15743 11.3326C6.05154 11.5881 5.89634 11.8202 5.70069 12.0157C5.50505 12.2112 5.2728 12.3662 5.01721 12.4719C4.76163 12.5776 4.48773 12.6319 4.21115 12.6317C3.65287 12.6317 3.11746 12.4099 2.72269 12.0151C2.32793 11.6204 2.10615 11.0849 2.10615 10.5267C2.10615 9.96839 2.32793 9.43297 2.72269 9.03821C3.11746 8.64344 3.65287 8.42167 4.21115 8.42167ZM14.7378 8.42167C15.0143 8.42167 15.288 8.47611 15.5434 8.5819C15.7988 8.68769 16.0308 8.84274 16.2263 9.03821C16.4217 9.23367 16.5768 9.46573 16.6826 9.72112C16.7884 9.97651 16.8428 10.2502 16.8428 10.5267C16.8428 11.0849 16.621 11.6204 16.2263 12.0151C15.8315 12.4099 15.2961 12.6317 14.7378 12.6317C14.1798 12.6312 13.6448 12.4093 13.2504 12.0145C12.856 11.6198 12.6345 11.0847 12.6345 10.5267C12.6345 9.96839 12.8563 9.43297 13.251 9.03821C13.6458 8.64344 14.1812 8.42167 14.7395 8.42167M31.5828 14.7383C32.1411 14.7383 32.6765 14.9601 33.0713 15.3549C33.466 15.7496 33.6878 16.2851 33.6878 16.8433C33.6878 17.4016 33.466 17.937 33.0713 18.3318C32.6765 18.7266 32.1411 18.9483 31.5828 18.9483C31.3062 18.9486 31.0323 18.8943 30.7768 18.7886C30.5212 18.6829 30.2889 18.5279 30.0933 18.3324C29.8976 18.1369 29.7424 17.9048 29.6365 17.6493C29.5307 17.3938 29.4762 17.1199 29.4762 16.8433C29.4759 16.5668 29.5302 16.2929 29.6359 16.0373C29.7416 15.7817 29.8966 15.5494 30.0921 15.3538C30.2876 15.1582 30.5197 15.0029 30.7752 14.8971C31.0307 14.7912 31.3046 14.7367 31.5812 14.7367" fill="#F55454"/>
</svg>
